<svg width="81" height="82" viewBox="0 0 81 82" fill="none" xmlns="http://www.w3.org/2000/svg">
<path d="M40.5 76.5993C20.9731 76.5993 4.91721 60.314 4.91721 40.6947C4.9321 36.6835 5.61749 32.7033 6.94476 28.9203L27.7732 69.6179C28.0568 70.1878 28.3404 70.6351 29.0748 70.6351C29.8093 70.6351 30.0872 70.1992 30.3764 69.6179L40.0661 47.9611C40.2098 47.6705 40.3544 47.5251 40.5 47.5251C40.7836 47.5251 40.7836 47.8101 40.9339 47.9611L50.771 69.6179C51.0546 70.1878 51.3382 70.6351 52.0726 70.6351C52.8071 70.6351 53.085 70.1992 53.3743 69.6179L74.2027 28.9203C75.5533 32.6971 76.2384 36.6815 76.2274 40.6947C76.0828 60.314 60.0411 76.5993 40.5 76.5993ZM40.5 31.3937C40.2164 31.3937 40.2164 31.1088 40.0661 30.9577L28.9302 6.82474C36.4082 4.11195 44.5947 4.11195 52.0726 6.82474L40.9339 30.952C40.7893 31.0974 40.7893 31.388 40.5 31.388V31.3937ZM28.7856 57.5585C28.502 57.5585 28.502 57.2735 28.3517 57.1225L10.1321 21.9417C13.3873 16.6793 17.9134 12.329 23.2899 9.29531L36.1613 37.204C36.4449 37.7739 36.7285 37.9306 37.1737 37.9306H43.8292C44.263 37.9306 44.5523 37.7853 44.8415 37.204L57.5683 9.29531C62.9469 12.3283 67.475 16.6785 70.7318 21.9417L52.6511 57.1168C52.5075 57.4074 52.3628 57.5528 52.2173 57.5528C51.9337 57.5528 51.9337 57.2678 51.7834 57.1168L44.8415 41.7092C44.5579 41.1393 44.2744 40.9825 43.8292 40.9825H37.1737C36.7398 40.9825 36.4506 41.1279 36.1613 41.7092L29.2195 57.1168C29.0748 57.2621 29.0748 57.5528 28.7856 57.5528V57.5585ZM40.5 81.3951C48.51 81.3951 56.3402 79.0083 63.0003 74.5365C69.6604 70.0648 74.8514 63.7088 77.9168 56.2725C80.9823 48.8362 81.7845 40.6534 80.222 32.7589C78.6595 24.8644 74.8026 17.6128 69.1388 11.9211C63.4751 6.22929 56.2589 2.353 48.4029 0.782358C40.5469 -0.788288 32.4038 0.0172527 25.0033 3.09712C17.6029 6.17698 11.2774 11.3928 6.8269 18.0851C2.37637 24.7775 0.00060906 32.6456 4.82131e-05 40.6947C-0.00816797 46.0414 1.03381 51.3371 3.06625 56.2783C5.09868 61.2196 8.08162 65.7091 11.8441 69.4896C15.6065 73.2702 20.0745 76.2674 24.9918 78.3094C29.9092 80.3514 35.1793 81.3981 40.5 81.3894V81.3951Z" fill="white"/>
</svg>
