<svg width="130" height="41" viewBox="0 0 130 41" fill="none" xmlns="http://www.w3.org/2000/svg">
<path fill-rule="evenodd" clip-rule="evenodd" d="M22.2956 29.9871C22.2956 29.9871 36.7758 16.7196 39.0174 16.4121C39.0174 16.4121 27.2044 8.63878 23.3865 0.0366211C23.3865 0.0366211 13.253 6.72051 7.01063 16.1615C7.00398 16.1582 13.5789 24.8639 22.2956 29.9871ZM48.0301 6.7206H57.2656V29.6831H48.0301V6.7206ZM69.9332 6.7206L86.8611 20.0449V6.7206H96.0967V29.6831H86.8611L69.9332 16.5961V29.6831H60.6977V6.7206H69.9332ZM129.6 11.005V6.7206H108.881H99.6485V29.6831H108.881H129.6V25.3987H108.881V20.3424H129.6V16.058H108.881V11.005H129.6ZM32.6918 22.0065H38.2491L44.0824 24.2957H30.0412L31.0855 23.3934H39.6725L38.2458 22.6749H31.9269L32.6918 22.0065ZM6.10933 22.6481L4.6826 23.3666L12.2952 23.3499C12.6211 23.6507 12.9537 23.9515 13.2929 24.2523H0.276016L6.10933 21.9797H10.8751C11.0925 22.2114 11.3098 22.4234 11.5336 22.6417L11.5402 22.6481H6.10933ZM1.52651 33.2857H0V40.0431H1.52651V33.2857ZM5.10486 35.24C5.36783 35.1035 5.66045 35.0348 5.95639 35.0401C6.9541 35.0401 7.70239 35.7085 7.70239 37.1456V40.053H6.18586V37.3427C6.18586 36.7111 5.96636 36.28 5.41762 36.28C5.24573 36.2808 5.07857 36.3366 4.94041 36.4394C4.80226 36.5421 4.70031 36.6865 4.64938 36.8515C4.6061 36.9736 4.5858 37.1028 4.58952 37.2324V40.0597H3.05968V36.7178C3.05968 36.1062 3.03973 35.5849 3.01978 35.1538H4.35006L4.4199 35.8221H4.44984C4.6168 35.5765 4.84189 35.3765 5.10486 35.24ZM11.2542 37.0454C10.6555 36.8349 10.466 36.7112 10.466 36.484C10.466 36.2567 10.6755 36.0829 11.0447 36.0829C11.414 36.0932 11.776 36.1893 12.1022 36.3636L12.3716 35.3109C11.9383 35.1183 11.4685 35.0225 10.9948 35.0302C9.78753 35.0302 8.99933 35.722 8.99933 36.6343C8.99933 37.2158 9.37847 37.7673 10.3862 38.1081C10.9549 38.2986 11.1045 38.4189 11.1045 38.6696C11.1045 38.9202 10.9149 39.0806 10.456 39.0806C10.0016 39.0609 9.55776 38.9362 9.15897 38.7164L8.87961 39.8058C9.37153 40.0405 9.91167 40.155 10.456 40.14C11.8528 40.14 12.5712 39.4717 12.5712 38.556C12.5712 37.8408 12.182 37.3796 11.2542 37.0454ZM13.958 34.0743L15.4446 33.7401V35.1437H16.5288V36.2666H15.4812V38.0412C15.4812 38.6327 15.6209 38.9034 16.0798 38.9034C16.2304 38.9037 16.3807 38.8903 16.5288 38.8633V40.0162C16.2059 40.1159 15.8686 40.16 15.5311 40.1466C15.32 40.1566 15.1091 40.124 14.9108 40.0505C14.7126 39.977 14.5311 39.8642 14.377 39.7188C14.0977 39.4281 13.958 38.9568 13.958 38.2651V36.2599H13.2929V35.137H13.958V34.0743ZM19.1761 35.1404H17.6596V40.0431H19.1761V35.1404ZM20.8523 34.0743L22.3389 33.7401V35.137H23.4463V36.2599H22.3588V38.0345C22.3588 38.626 22.4985 38.8967 22.9575 38.8967C23.108 38.8971 23.2583 38.8836 23.4064 38.8566V40.0096C23.0836 40.1093 22.7462 40.1533 22.4087 40.1399C22.2009 40.1486 21.9933 40.1159 21.7981 40.0436C21.6029 39.9713 21.4239 39.8609 21.2713 39.7188C20.992 39.4281 20.8523 38.9568 20.8523 38.2651V36.2599H20.1871V35.137H20.8523V34.0743ZM29.1665 35.1438H27.6267V38.048C27.6325 38.1616 27.6155 38.2752 27.5768 38.3822C27.5189 38.5375 27.4154 38.6715 27.28 38.7664C27.1446 38.8613 26.9837 38.9126 26.8186 38.9135C26.2898 38.9135 26.0603 38.4824 26.0603 37.7706V35.1338H24.5338V38.0112C24.5338 39.5251 25.2621 40.1467 26.2499 40.1467C26.5517 40.1577 26.8512 40.0896 27.1189 39.9489C27.3865 39.8083 27.6132 39.6 27.7764 39.3447H27.8063L27.8762 40.0364H29.2065C29.1865 39.6254 29.1665 39.104 29.1665 38.4624V35.1438ZM30.8294 34.0743L32.316 33.7401L32.336 35.137H33.4235V36.2599H32.336V38.0345C32.336 38.626 32.4756 38.8967 32.9346 38.8967C33.0852 38.8971 33.2354 38.8836 33.3836 38.8566V40.0096C33.0607 40.1093 32.7234 40.1533 32.3858 40.1399C32.178 40.1486 31.9705 40.1159 31.7753 40.0436C31.5801 39.9713 31.401 39.8609 31.2485 39.7188C30.9691 39.4281 30.8294 38.9568 30.8294 38.2651V36.2599H30.1643V35.137H30.8294V34.0743ZM36.8158 35.0402C35.2494 35.0402 34.2117 36.0427 34.2117 37.6369C34.2117 39.231 35.3092 40.1634 36.736 40.1634C38.043 40.1634 39.3101 39.3412 39.3101 37.5466C39.3278 37.2128 39.2754 36.8789 39.1564 36.5667C39.0373 36.2546 38.8542 35.9711 38.6189 35.7347C38.3837 35.4983 38.1016 35.3143 37.7909 35.1946C37.4802 35.075 37.148 35.0223 36.8158 35.0402ZM36.7659 39.0505C36.1174 39.0505 35.7682 38.4189 35.7682 37.5767C35.7682 36.8548 36.0376 36.1029 36.7659 36.1029C37.4942 36.1029 37.7337 36.8448 37.7337 37.5767C37.7337 38.4723 37.3546 39.0505 36.7659 39.0505ZM47.1021 38.0814C47.0063 37.1455 46.963 36.2049 46.9724 35.2641V33.289H48.3692V40.0632H46.7695L45.3361 37.4564C44.9054 36.6823 44.5157 35.8858 44.1688 35.0703H44.1389C44.1788 35.9626 44.1987 36.915 44.1987 38.0179V40.0531H42.8019V33.289H44.5779L45.9747 35.7654C46.3891 36.5132 46.7557 37.2867 47.0722 38.0814H47.1021ZM54.1461 37.1488C54.1461 35.9959 53.6273 35.0334 52.001 35.0334C51.3435 35.0194 50.6927 35.1674 50.1053 35.4645L50.3847 36.447C50.7894 36.2115 51.2473 36.0838 51.715 36.0761C52.4632 36.0761 52.6029 36.447 52.6029 36.7077V36.7779C50.8769 36.7779 49.7395 37.3794 49.7395 38.6527C49.7392 38.8571 49.7804 39.0595 49.8605 39.2474C49.9407 39.4353 50.0581 39.6048 50.2056 39.7455C50.3532 39.8862 50.5277 39.9953 50.7186 40.066C50.9095 40.1367 51.1127 40.1675 51.3159 40.1566C51.5786 40.1676 51.8405 40.1193 52.0822 40.0152C52.324 39.9111 52.5394 39.7538 52.7127 39.555H52.7393L52.8324 40.0463H54.1959C54.1446 39.6508 54.1223 39.252 54.1294 38.8532L54.1461 37.1488ZM52.6694 38.2617C52.6699 38.3495 52.6599 38.437 52.6395 38.5224C52.5827 38.6868 52.4762 38.8293 52.3349 38.9299C52.1936 39.0306 52.0245 39.0844 51.8513 39.0838C51.7723 39.0924 51.6925 39.0833 51.6173 39.0574C51.5422 39.0315 51.4737 38.9893 51.4166 38.9339C51.3594 38.8784 51.3152 38.811 51.2868 38.7364C51.2585 38.6618 51.2469 38.5819 51.2527 38.5023C51.2527 37.9108 51.8713 37.7203 52.6694 37.7303V38.2617ZM59.2144 36.3569C58.9453 36.2478 58.6564 36.1965 58.3664 36.2065C58.0039 36.2105 57.6578 36.3591 57.4042 36.6195C57.1507 36.8799 57.0105 37.2308 57.0145 37.5951C57.0184 37.9594 57.1663 38.3072 57.4254 38.562C57.6845 38.8167 58.0338 38.9576 58.3963 38.9536C58.6925 38.9595 58.9871 38.9084 59.2643 38.8032L59.4439 39.9261C59.0093 40.0842 58.5491 40.159 58.087 40.1467C56.5006 40.1467 55.5029 39.1842 55.5029 37.6402C55.5029 36.2065 56.4807 35.0335 58.2965 35.0335C58.6891 35.0312 59.0793 35.0956 59.4506 35.224L59.2144 36.3569ZM62.2375 35.1404H60.721V40.0431H62.2375V35.1404ZM63.6144 37.6369C63.6144 36.0427 64.6487 35.0402 66.2151 35.0402C66.5473 35.0223 66.8796 35.075 67.1902 35.1946C67.5009 35.3143 67.783 35.4983 68.0183 35.7347C68.2535 35.9711 68.4366 36.2546 68.5557 36.5667C68.6748 36.8789 68.7271 37.2128 68.7094 37.5466C68.7094 39.3412 67.4456 40.1634 66.1386 40.1634C64.7119 40.1634 63.6144 39.231 63.6144 37.6369ZM65.1775 37.5767C65.1775 38.4189 65.53 39.0505 66.1752 39.0505C66.7672 39.0505 67.143 38.4723 67.143 37.5767C67.143 36.8448 66.9035 36.1029 66.1752 36.1029C65.4469 36.1029 65.1775 36.8548 65.1775 37.5767ZM72.9729 35.0402C72.6765 35.0346 72.3833 35.1031 72.1197 35.2396C71.8562 35.3761 71.6305 35.5763 71.463 35.8222H71.4364L71.3666 35.1538H70.0363C70.0363 35.3505 70.0446 35.5661 70.0537 35.8004V35.8006V35.8007V35.8008V35.801V35.8011V35.8013V35.8015V35.8017V35.8019V35.8022L70.0537 35.8025C70.0644 36.0811 70.0762 36.3862 70.0762 36.7178V40.0598H71.5928V37.2325C71.5897 37.1032 71.6089 36.9743 71.6493 36.8515C71.7017 36.6868 71.8045 36.5429 71.9431 36.4403C72.0816 36.3377 72.2488 36.2816 72.4209 36.28C72.9663 36.28 73.1858 36.7111 73.1858 37.3428V40.0531H74.7289V37.1456C74.7289 35.7085 73.9673 35.0402 72.9729 35.0402ZM78.2975 35.0334C79.9238 35.0334 80.4426 35.9959 80.4426 37.1488L80.4392 38.8532C80.4313 39.2521 80.4547 39.6511 80.5091 40.0463H79.1422L79.0524 39.555H79.0092C78.8359 39.7538 78.6205 39.9111 78.3788 40.0152C78.137 40.1193 77.8751 40.1676 77.6124 40.1566C77.4092 40.1675 77.206 40.1367 77.0151 40.066C76.8242 39.9953 76.6497 39.8862 76.5022 39.7455C76.3546 39.6048 76.2372 39.4353 76.157 39.2474C76.0769 39.0595 76.0357 38.8571 76.036 38.6527C76.036 37.3794 77.1734 36.7779 78.8994 36.7779V36.7077C78.8994 36.447 78.7598 36.0761 78.0115 36.0761C77.5438 36.0838 77.0859 36.2115 76.6812 36.447L76.4018 35.4645C76.9892 35.1674 77.64 35.0194 78.2975 35.0334ZM78.936 38.5224C78.9564 38.437 78.9664 38.3495 78.966 38.2617V37.7303C78.1678 37.7203 77.5492 37.9108 77.5492 38.5023C77.544 38.5818 77.556 38.6614 77.5846 38.7357C77.6131 38.81 77.6574 38.8772 77.7143 38.9325C77.7713 38.9879 77.8396 39.0301 77.9145 39.0562C77.9893 39.0823 78.069 39.0918 78.1478 39.0838C78.3212 39.0849 78.4904 39.0313 78.6319 38.9306C78.7733 38.8298 78.8796 38.6871 78.936 38.5224ZM83.5986 32.9248H82.0821V40.0432H83.5986V32.9248ZM91.7699 37.1858H89.2956V38.7899H92.0592V40.0431H87.7691V33.2857H91.9196V34.5389H89.2956V35.9426H91.7699V37.1858ZM95.0923 32.9248H93.5758V40.0432H95.0923V32.9248ZM96.5424 37.6569C96.5424 36.4137 97.3106 35.0402 99.0067 35.0402C100.566 35.0402 101.165 36.2667 101.182 37.4865C101.182 37.6881 101.165 37.8893 101.132 38.0881H97.9891C98.0356 38.7197 98.6575 39.0205 99.3659 39.0205C99.8226 39.026 100.277 38.9583 100.713 38.8199L100.912 39.8526C100.348 40.063 99.7486 40.165 99.1464 40.1534C97.4902 40.1534 96.5424 39.1909 96.5424 37.6569ZM98.2498 36.3569C98.0755 36.5433 97.9786 36.7896 97.9791 37.0454H99.775C99.775 36.6644 99.6153 36.0428 98.9169 36.0428C98.6628 36.0581 98.4242 36.1705 98.2498 36.3569ZM105.146 36.2065C105.436 36.1965 105.725 36.2478 105.994 36.3569L106.234 35.224C105.861 35.0959 105.47 35.0315 105.076 35.0335C103.26 35.0335 102.286 36.2065 102.286 37.6402C102.286 39.1842 103.284 40.1467 104.867 40.1467C105.329 40.159 105.789 40.0842 106.224 39.9261L106.044 38.8032C105.767 38.9084 105.472 38.9594 105.176 38.9536C104.996 38.9556 104.818 38.922 104.652 38.8548C104.485 38.7876 104.333 38.6881 104.205 38.5619C103.946 38.3072 103.798 37.9594 103.794 37.5951C103.79 37.2308 103.93 36.8799 104.184 36.6195C104.437 36.3591 104.783 36.2105 105.146 36.2065ZM107.923 34.0743L109.406 33.7401L109.426 35.137H110.514V36.2599H109.426V38.0345C109.426 38.626 109.566 38.8967 110.025 38.8967C110.175 38.8972 110.326 38.8838 110.474 38.8566V40.0096C110.151 40.1093 109.814 40.1533 109.476 40.1399C109.268 40.1486 109.061 40.1159 108.865 40.0436C108.67 39.9713 108.491 39.8609 108.339 39.7188C108.063 39.4281 107.923 38.9568 107.923 38.2651V36.2599H107.258V35.137H107.923V34.0743ZM114.135 35.0402C112.569 35.0402 111.531 36.0427 111.531 37.6369C111.531 39.231 112.629 40.1634 114.056 40.1634C115.363 40.1634 116.63 39.3412 116.63 37.5466C116.647 37.2128 116.595 36.8789 116.476 36.5667C116.357 36.2546 116.174 35.9711 115.939 35.7347C115.703 35.4983 115.421 35.3143 115.111 35.1946C114.8 35.075 114.468 35.0223 114.135 35.0402ZM114.096 39.0505C113.447 39.0505 113.098 38.4189 113.098 37.5767C113.098 36.8548 113.367 36.1029 114.096 36.1029C114.824 36.1029 115.063 36.8448 115.063 37.5767C115.063 38.4723 114.684 39.0505 114.096 39.0505ZM119.373 36.043H119.413C119.499 35.7581 119.67 35.5068 119.904 35.3237C120.137 35.1405 120.421 35.0346 120.717 35.0203C120.828 35.0151 120.94 35.0218 121.05 35.0404V36.5008C120.915 36.4745 120.778 36.4611 120.641 36.4607C120.404 36.44 120.167 36.5071 119.976 36.6493C119.785 36.7914 119.652 36.999 119.603 37.2327C119.583 37.3429 119.573 37.4548 119.573 37.5669V40.0533H118.056V36.7548C118.056 36.033 118.037 35.5617 118.017 35.1407H119.324L119.373 36.043ZM126.298 37.1488C126.298 35.9959 125.779 35.0334 124.152 35.0334C123.495 35.0194 122.844 35.1674 122.257 35.4645L122.536 36.447C122.946 36.2087 123.41 36.0809 123.883 36.0761C124.631 36.0761 124.771 36.447 124.771 36.7077V36.7779C123.045 36.7779 121.908 37.3794 121.908 38.6527C121.907 38.8571 121.949 39.0595 122.029 39.2474C122.109 39.4353 122.226 39.6048 122.374 39.7455C122.521 39.8862 122.696 39.9953 122.887 40.066C123.078 40.1367 123.281 40.1675 123.484 40.1566C123.747 40.1676 124.009 40.1193 124.25 40.0152C124.492 39.9111 124.708 39.7538 124.881 39.555H124.911L125.001 40.0463H126.367C126.313 39.6511 126.29 39.2521 126.298 38.8532V37.1488ZM124.821 38.2617C124.821 38.3495 124.811 38.437 124.791 38.5224C124.735 38.6871 124.628 38.8298 124.487 38.9306C124.345 39.0313 124.176 39.0849 124.003 39.0838C123.924 39.0918 123.844 39.0823 123.769 39.0562C123.695 39.0301 123.626 38.9879 123.569 38.9325C123.512 38.8772 123.468 38.81 123.44 38.7357C123.411 38.6614 123.399 38.5818 123.404 38.5023C123.404 37.9108 124.023 37.7203 124.821 37.7303V38.2617ZM127.987 32.9248H129.504V40.0432H127.987V32.9248ZM19.1761 33.7369H17.6596V34.7395H19.1761V33.7369ZM60.721 33.7369H62.2375V34.7395H60.721V33.7369Z" fill="white"/>
</svg>
