<svg width="81" height="83" viewBox="0 0 81 83" fill="none" xmlns="http://www.w3.org/2000/svg">
<path fill-rule="evenodd" clip-rule="evenodd" d="M62.9917 7.54055C56.3299 3.07013 48.4985 0.68532 40.4878 0.687746C29.7496 0.694248 19.4533 4.98449 11.8614 12.6157C4.26955 20.2469 0.00323341 30.5947 0 41.3853C0 49.435 2.37559 57.304 6.82632 63.9969C11.2771 70.6898 17.603 75.9061 25.0041 78.9861C32.4052 82.066 40.5491 82.8713 48.4056 81.2999C56.2622 79.7286 63.4786 75.8513 69.1421 70.1585C74.8057 64.4656 78.6619 57.2128 80.2233 49.3175C81.7846 41.4221 80.9808 33.2388 77.9136 25.8025C74.8464 18.3662 69.6535 12.011 62.9917 7.54055ZM17.5849 13.3324C24.0406 8.00577 32.1347 5.09327 40.4878 5.09112C45.2304 5.08522 49.9275 6.02051 54.3095 7.84332C58.6915 9.66614 62.6722 12.3406 66.023 15.7132C71.9307 21.6475 75.6079 29.4566 76.4282 37.8099C77.2486 46.1632 75.1613 54.5439 70.5219 61.5241C65.8825 68.5043 58.9782 73.6521 50.9852 76.0904C42.9922 78.5287 34.4052 78.1067 26.6872 74.8962C18.9692 71.6857 12.5978 65.8853 8.65844 58.4835C4.71911 51.0816 3.45567 42.5362 5.08335 34.3032C6.71102 26.0702 11.1291 18.659 17.5849 13.3324ZM71.4059 44.6971H65.3028L65.376 32.3088H59.273V49.8119H71.4059V44.6971ZM35.471 51.6395L45.48 43.7282L45.5044 49.677H57.6373V44.5622H51.5343V32.1739H45.4312V38.3067L37.0456 44.9179L35.4344 43.6914L43.8078 37.0802L40.4267 34.4062L32.0533 41.0174L30.4421 39.7909L38.8154 33.1674L35.4221 30.4935L26.2798 37.718C25.6105 36.1009 24.4754 34.7219 23.0203 33.758C21.5652 32.7942 19.8565 32.2895 18.1138 32.3088H10.3019V49.8119H18.1627C19.9036 49.8233 21.6089 49.3169 23.0641 48.3566C24.5193 47.3963 25.6594 46.0249 26.3408 44.415L35.471 51.6395ZM21.0502 39.5985C21.2328 40.0651 21.3137 40.5657 21.2874 41.0665V41.1524C21.3164 41.657 21.2362 42.162 21.0522 42.6325C20.8682 43.103 20.5848 43.5277 20.2216 43.8775C19.8584 44.2273 19.4241 44.4938 18.9485 44.6586C18.4729 44.8234 17.9674 44.8826 17.4669 44.8321H16.1487V37.3868H17.5035C18.0007 37.344 18.5013 37.4089 18.9714 37.5769C19.4416 37.745 19.8704 38.0124 20.229 38.3611C20.5876 38.7099 20.8676 39.1318 21.0502 39.5985Z" fill="white"/>
</svg>
