<svg width="98" height="66" viewBox="0 0 98 66" fill="none" xmlns="http://www.w3.org/2000/svg">
<path fill-rule="evenodd" clip-rule="evenodd" d="M83.5711 42.4701L71.5529 22.3476L58.2632 0.139404L52.7887 3.44782L44.0957 8.69897L52.7887 23.2461L64.2627 42.4701H71.5529H83.5711ZM96.0269 43.1323C96.0319 42.7562 95.9375 42.3854 95.7534 42.0579C95.5675 41.7254 95.2941 41.4506 94.9632 41.2638C94.6437 41.0898 94.2873 40.9956 93.9241 40.989C93.5607 40.9952 93.2043 41.0895 92.8849 41.2638C92.5527 41.4498 92.2782 41.7247 92.0919 42.0579C91.9039 42.3846 91.804 42.7549 91.8021 43.1323C91.8055 43.5043 91.9054 43.8689 92.0919 44.1902C92.2658 44.5153 92.5262 44.7855 92.8439 44.9706C93.1655 45.1541 93.5296 45.2489 93.8994 45.2454C94.269 45.2472 94.6328 45.1526 94.955 44.9706C95.2816 44.7898 95.5501 44.5191 95.7288 44.1902C95.9201 43.8705 96.023 43.5053 96.0269 43.1323ZM96.4507 43.1323C96.4512 43.576 96.3352 44.012 96.1144 44.3963C95.9058 44.7984 95.5793 45.1264 95.1792 45.3361C94.7975 45.5625 94.3618 45.6803 93.9186 45.6768C93.4762 45.681 93.0411 45.5632 92.6607 45.3361C92.2589 45.1277 91.9313 44.7994 91.7228 44.3963C91.5008 44.0125 91.3846 43.5762 91.3864 43.1323C91.3811 42.6784 91.4973 42.2314 91.7228 41.8381C91.9424 41.4378 92.273 41.1104 92.6744 40.8955C93.057 40.6863 93.4832 40.5706 93.9186 40.5576C94.3549 40.5642 94.7826 40.6804 95.1628 40.8955C95.5712 41.1046 95.9068 41.4332 96.1253 41.8381C96.3458 42.233 96.458 42.6796 96.4507 43.1323ZM94.3725 42.352C94.4154 42.4179 94.4355 42.496 94.4299 42.5745C94.4319 42.6298 94.4217 42.6849 94.3999 42.7358C94.3782 42.7866 94.3455 42.832 94.3042 42.8686C94.1891 42.9494 94.0507 42.99 93.9104 42.984H93.2377V42.1596H93.9104C94.0024 42.1694 94.0938 42.185 94.1838 42.2063C94.2626 42.2294 94.33 42.2814 94.3725 42.352ZM94.9139 42.5278C94.915 42.385 94.8688 42.2458 94.7827 42.1321C94.6982 42.0014 94.5687 41.9065 94.419 41.8656C94.249 41.8134 94.0717 41.7892 93.894 41.7941C93.8736 41.7941 93.8496 41.7912 93.8241 41.788C93.7947 41.7843 93.7633 41.7804 93.7326 41.7804H92.781V44.553H93.2213V43.3797H93.4947L93.8447 43.4813C93.8671 43.4926 93.8874 43.5074 93.9049 43.5253C94.0681 43.7006 94.2053 43.8987 94.3123 44.1133L94.5612 44.553H95.089L94.7663 44.0034L94.3588 43.4539C94.2898 43.3914 94.2102 43.3421 94.1237 43.3082C94.3388 43.3006 94.543 43.2112 94.6952 43.0582C94.7656 42.9894 94.8214 42.9069 94.859 42.8157C94.8966 42.7245 94.9153 42.6265 94.9139 42.5278ZM92.4556 52.9944H96.6996C96.7242 52.0575 96.5055 51.1304 96.0652 50.3042C95.6225 49.5326 94.9685 48.905 94.1811 48.4961C94.0953 48.4374 94.0036 48.3876 93.9077 48.3477C92.751 47.7982 91.2114 47.5234 89.2973 47.5234C86.9675 47.5234 85.2119 48.1416 84.0415 49.3919C83.1155 50.3796 82.616 51.6955 82.6524 53.0521C82.6524 54.8492 83.5302 56.1544 85.3158 56.9787C85.994 57.303 87.6319 57.7701 90.2379 58.3197C91.9826 58.7016 92.8576 59.2457 92.8576 59.9382C92.8576 60.1515 92.8082 60.3618 92.7133 60.5526C92.6183 60.7434 92.4805 60.9093 92.3107 61.0373C91.8313 61.4495 91.1021 61.6556 90.1231 61.6556C88.8215 61.6556 87.9027 61.433 87.3558 61.0071C87.0861 60.7989 86.8706 60.5282 86.7278 60.2181C86.5849 59.908 86.5189 59.5678 86.5354 59.2265H82.0863C82.0647 60.1541 82.2853 61.0712 82.7262 61.8864C83.1847 62.6757 83.8458 63.3268 84.6404 63.7714C86.0022 64.5518 87.7878 64.9475 89.9973 64.9475C91.3413 64.973 92.6764 64.7234 93.9213 64.2138C94.1538 64.1094 94.3589 64.0078 94.5803 63.8896C96.3222 62.9196 97.2 61.3753 97.2 59.2567C97.2 57.5228 96.3086 56.2258 94.5065 55.374C94.3792 55.31 94.2093 55.2461 94.0159 55.1733L94.0157 55.1733L93.9213 55.1377C92.484 54.6823 91.0235 54.3044 89.5461 54.0056C87.7769 53.6099 86.8827 53.0933 86.8827 52.4475C86.8736 52.2405 86.9111 52.0342 86.9926 51.8438C87.074 51.6535 87.1972 51.4841 87.353 51.3484C87.755 50.9939 88.4714 50.8181 89.5406 50.8181C90.6098 50.8181 91.3864 51.0544 91.8404 51.5105C92.1193 51.7908 92.3244 52.2882 92.4556 52.9944ZM80.2652 56.443V64.6865H76.281V63.7742C74.8881 64.6881 73.2603 65.1742 71.5967 65.1729H71.553C69.2738 65.1323 67.1016 64.1939 65.5041 62.5599C63.9066 60.9258 63.0114 58.7268 63.0114 56.4361C63.0114 54.1454 63.9066 51.9463 65.5041 50.3123C67.1016 48.6782 69.2738 47.7399 71.553 47.6993H71.5967C73.26 47.697 74.8878 48.1821 76.281 49.0952V48.1389H80.2652V56.443ZM76.27 57.3552V55.5307C76.0572 54.4407 75.4754 53.4584 74.6235 52.7506C73.7716 52.0428 72.7021 51.6532 71.5967 51.648H71.553C70.3054 51.6779 69.119 52.197 68.2472 53.0943C67.3754 53.9915 66.8874 55.1958 66.8874 56.4498C66.8874 57.7038 67.3754 58.9081 68.2472 59.8054C69.119 60.7026 70.3054 61.2217 71.553 61.2517H71.5967C72.7052 61.2458 73.7775 60.8544 74.6314 60.1441C75.4853 59.4338 76.0681 58.4484 76.281 57.3552H76.27ZM61.5118 64.6866V56.443V42.4702H57.5167V49.0952C56.1227 48.1841 54.4954 47.6991 52.8324 47.6993H52.7887C50.5095 47.7399 48.3373 48.6783 46.7398 50.3123C45.1422 51.9464 44.2471 54.1455 44.2471 56.4361C44.2471 58.7268 45.1422 60.9259 46.7398 62.5599C48.3373 64.194 50.5095 65.1323 52.7887 65.1729H52.8324C54.4956 65.1721 56.1229 64.6863 57.5167 63.7743V64.6866H61.5118ZM57.5167 55.5307V57.3553C57.3038 58.4485 56.7209 59.4339 55.8671 60.1442C55.0132 60.8545 53.9409 61.2458 52.8324 61.2517H52.7887C51.5411 61.2217 50.3547 60.7027 49.4829 59.8054C48.6111 58.9082 48.1231 57.7039 48.1231 56.4499C48.1231 55.1959 48.6111 53.9916 49.4829 53.0943C50.3547 52.1971 51.5411 51.678 52.7887 51.648H52.8324C53.9397 51.6507 55.0117 52.0391 55.8659 52.7471C56.72 53.4551 57.3034 54.4389 57.5167 55.5307ZM52.7887 34.5563L57.5003 42.4702H52.7887H38.2083L27.4972 24.5569L27.0296 23.7765L27.4972 23.4962L41.2108 15.2005L52.7887 34.5563ZM38.2247 47.7048H42.5726V64.692H38.2247V47.7048ZM42.5726 42.5581H38.2247V46.3969H42.5726V42.5581ZM36.2394 64.6866V56.443V42.4702H32.2306V49.0952C30.8318 48.1835 29.2 47.6987 27.5327 47.6993H27.489C25.2098 47.7399 23.0376 48.6783 21.4401 50.3123C19.8425 51.9464 18.9474 54.1455 18.9474 56.4361C18.9474 58.7268 19.8425 60.9259 21.4401 62.5599C23.0376 64.194 25.2098 65.1323 27.489 65.1729H27.5409C29.2085 65.1726 30.8402 64.6868 32.2388 63.7743V64.6866H36.2394ZM32.2443 55.5307V57.3553H32.2388C32.0248 58.4519 31.4386 59.4399 30.5803 60.1505C29.722 60.8611 28.6448 61.2504 27.5327 61.2517H27.489C26.2414 61.2217 25.055 60.7027 24.1832 59.8054C23.3114 58.9082 22.8234 57.7039 22.8234 56.4499C22.8234 55.1959 23.3114 53.9916 24.1832 53.0943C25.055 52.1971 26.2414 51.678 27.489 51.648H27.5464C28.6557 51.6486 29.7305 52.0359 30.5872 52.744C31.444 53.4521 32.0297 54.437 32.2443 55.5307ZM27.4972 35.8505L31.4486 42.4701H27.4972H12.1429L9.9772 38.8374L24.1584 30.2751L27.4972 35.8505ZM17.2811 64.6865V56.4429V48.1389H13.2859V49.0952C11.8857 48.1843 10.2533 47.6995 8.58531 47.6993H8.54156C6.26237 47.7399 4.09018 48.6782 2.49265 50.3123C0.895118 51.9463 0 54.1454 0 56.4361C0 58.7267 0.895118 60.9258 2.49265 62.5599C4.09018 64.1939 6.26237 65.1323 8.54156 65.1729H8.58531C10.2536 65.1717 11.886 64.686 13.2859 63.7742V64.6865H17.2811ZM13.2859 55.5307V57.3552C13.0716 58.4507 12.486 59.4377 11.629 60.1481C10.7719 60.8585 9.69633 61.2485 8.58531 61.2517H8.54156C7.294 61.2217 6.10757 60.7026 5.23578 59.8054C4.36398 58.9081 3.87595 57.7038 3.87595 56.4498C3.87595 55.1958 4.36398 53.9915 5.23578 53.0943C6.10757 52.197 7.294 51.6779 8.54156 51.6479H8.58531C9.69496 51.6484 10.7701 52.0357 11.6273 52.7437C12.4845 53.4518 13.0707 54.4368 13.2859 55.5307Z" fill="white"/>
</svg>
