<svg width="130" height="35" viewBox="0 0 130 35" fill="none" xmlns="http://www.w3.org/2000/svg">
<path fill-rule="evenodd" clip-rule="evenodd" d="M80.5188 10.3687C79.821 10.2449 79.1102 10.2114 78.4039 10.2691C77.054 10.2683 75.7197 10.5598 74.4919 11.124C74.0922 11.3094 73.7437 11.4673 73.7198 11.4673C73.6959 11.4673 73.6959 9.02285 73.7198 6.03591C73.7642 1.83017 73.754 0.604492 73.6651 0.604492C73.3611 0.604492 63.8458 2.42412 63.757 2.50652C63.6682 2.58892 63.6443 2.77088 63.6614 3.07644C63.6629 3.10268 63.6642 3.12752 63.6654 3.15107C63.6734 3.30483 63.6785 3.40367 63.7245 3.47678C63.8074 3.60836 64.0226 3.65659 64.6253 3.79162C64.6769 3.80318 64.7314 3.81538 64.7888 3.82833C65.1073 3.89598 65.4137 4.01174 65.6976 4.17165C66.0871 4.44975 66.4083 5.04713 66.6304 5.90888C66.808 6.59553 66.832 7.07276 66.9105 11.6596C66.996 16.3426 66.9789 21.156 66.849 29.976L66.7978 33.6393L67.4811 33.7938C68.4651 34.0204 71.2906 34.4805 72.2165 34.5869C74.0549 34.7228 75.9011 34.7113 77.7377 34.5526C82.1075 33.8899 85.4046 31.3459 86.9386 27.4423C87.3947 26.2074 87.7088 24.9242 87.8747 23.6176C88.024 21.8592 87.9667 20.0891 87.7039 18.3441C86.7643 14.0663 84.1165 11.1171 80.5188 10.3687ZM80.6077 24.6167C80.1908 27.8852 79.1248 30.5254 77.7104 31.806C77.2222 32.2754 76.6083 32.5915 75.944 32.7158C75.4401 32.8123 74.9234 32.8205 74.4168 32.7398C74.041 32.7123 73.9556 32.6677 73.8804 32.4686C73.7608 32.1527 73.6207 21.1766 73.6788 16.7923L73.7232 13.3591L74.3416 13.1737C74.817 13.0443 75.3081 12.9831 75.8005 12.9917C76.3421 12.9327 76.888 13.0533 77.3551 13.335C78.9574 14.1315 80.0576 16.1057 80.5667 19.1132C80.7631 20.9463 80.7769 22.7946 80.6077 24.6304V24.6167ZM12.3066 3.78376H15.2414C18.6102 3.78376 19.1603 3.85243 20.3663 4.44295C22.0985 5.29439 23.3627 6.98356 24.4662 9.91556L24.4729 9.93328C24.7073 10.5591 24.8165 10.8507 25.0166 10.941C25.1914 11.0198 25.4353 10.9451 25.8923 10.8051L25.9046 10.8013L26.5674 10.5988L26.5059 6.27631C26.4752 3.90049 26.4205 1.78903 26.3863 1.58304L26.3249 1.20881L13.4716 1.18135H13.4681C6.3973 1.18135 0.48854 1.18135 0.307491 1.20881L0 1.26375L0.0273308 2.03279L0.0546641 2.79841L1.03181 2.91858C2.30278 3.06964 3.06127 3.43014 3.51226 4.08932C4.53724 5.57592 4.71148 7.59811 4.70807 17.2181C4.70807 27.4629 4.49282 29.9521 3.51226 31.243C3.0066 31.909 2.59661 32.1287 1.4623 32.3416L1.32632 32.3669L1.3263 32.3669C0.520651 32.5165 0.210226 32.5741 0.09093 32.7567C0.0161514 32.8711 0.0164708 33.0346 0.0169905 33.3006L0.0170814 33.3716C0.0170814 33.8042 0.0580819 34.0376 0.133247 34.0582C0.304077 34.1269 16.7481 34.1303 16.9224 34.0582C17.1479 33.969 17.1342 32.7502 16.9224 32.63C16.5161 32.5205 16.1029 32.4391 15.6856 32.3862C15.1952 32.3204 14.7116 32.2112 14.2404 32.0601C13.1641 31.5897 12.5662 30.2851 12.3407 27.9402C12.1767 26.2476 12.0537 23.1336 12.0537 20.8299V18.715L13.0548 18.7459C15.1868 18.8111 16.2903 18.9244 16.7345 19.1236C17.7014 19.5527 18.4804 20.7475 18.8869 22.4195L19.1022 23.3087L19.8641 23.3362L20.626 23.3636V12.1094L19.8641 12.1369L19.1022 12.1643L18.8801 13.0536C18.4496 14.7702 17.7492 15.8311 16.714 16.3117C16.2937 16.5074 15.9965 16.5623 15.0057 16.6207C14.3224 16.6619 13.4033 16.6962 12.9284 16.6997H12.0264V13.9187C12.0264 11.1275 12.1767 5.19482 12.2724 4.27471L12.3066 3.78376ZM123.739 19.7037C126.759 20.974 128.201 22.0521 128.987 23.6245C129.496 24.6476 129.639 25.4647 129.591 27.0269C129.557 28.2113 129.52 28.4482 129.25 29.2413C128.382 31.8231 126.414 33.5226 123.377 34.3225C122.348 34.5903 122.208 34.604 120.158 34.6281C118.979 34.659 117.845 34.6487 117.64 34.6281C115.98 34.4496 113.339 33.8693 112.461 33.4882L112.03 33.3028L111.972 31.1639L111.963 30.8626L111.963 30.8611L111.963 30.8587C111.93 29.7273 111.89 28.3511 111.89 27.6689L111.866 26.3127L112.122 26.1857C112.325 26.1055 112.54 26.058 112.758 26.0449L113.134 26.0278L113.458 26.8243C114.712 29.928 116.185 31.6034 118.108 32.1115C118.981 32.3059 119.886 32.3059 120.759 32.1115C121.459 31.9046 122.07 31.4705 122.498 30.8773C122.926 30.284 123.146 29.565 123.124 28.8327C123.131 26.9444 122.106 26.0621 118.238 24.5412C115.84 23.6005 115.003 23.1232 114.008 22.0933C112.932 20.9843 112.416 19.7277 112.32 17.9733C112.245 16.978 112.385 15.9781 112.73 15.0423C113.076 14.1064 113.619 13.2569 114.323 12.5522C115.795 11.021 117.702 10.1936 120.302 9.95325C122.591 9.74382 126.106 10.2313 127.948 11.0176L128.29 11.1583L128.351 13.0672L128.366 13.5793L128.366 13.5806L128.366 13.5815C128.395 14.5389 128.426 15.6083 128.426 16.1881V17.4069L127.975 17.5751C127.265 17.8395 127.217 17.8085 126.821 16.7511C125.707 13.7916 124.415 12.3909 122.403 11.9617C121.176 11.7008 120.151 11.9823 119.407 12.7823C119.131 13.0587 118.913 13.3874 118.764 13.7493C118.616 14.1111 118.54 14.4989 118.542 14.8903C118.484 15.8997 118.662 16.4318 119.277 17.1185C120.032 17.9493 121.272 18.6737 123.739 19.7037ZM96.0985 11.0383C98.9889 9.62039 102.942 9.52769 105.501 10.8186C108.374 12.2709 110.083 15.1651 110.51 19.3674C110.563 19.8645 110.589 20.3643 110.585 20.8643L110.554 21.3312L103.656 21.3553L96.7613 21.3793L96.7886 22.1999C96.8128 23.9481 97.2285 25.6683 98.0049 27.233C98.3253 27.8694 98.757 28.4427 99.2793 28.9256C100.769 30.4362 102.252 31.0233 104.589 31.0233C106.074 31.0827 107.539 30.6732 108.781 29.8526C109.027 29.6754 109.298 29.5344 109.584 29.4337C109.779 29.4337 110.226 30.0105 110.226 30.2646C110.226 30.6766 108.89 32.0052 107.585 32.891C106.292 33.7046 104.857 34.2616 103.355 34.5321C101.909 34.7141 100.446 34.7141 98.9992 34.5321C94.3765 33.691 91.0693 30.3985 89.9896 25.5541C89.8235 24.6738 89.7445 23.7791 89.7539 22.8831C89.6992 20.751 89.87 19.4258 90.4201 17.7812C91.4724 14.6192 93.3652 12.3807 96.0985 11.0383ZM98.555 19.3537C99.5151 19.3365 101.032 19.2987 101.924 19.2678L103.547 19.2129L103.485 18.0559C103.28 13.9738 102.286 11.7456 100.677 11.7456C98.924 11.749 97.5232 14.0047 96.9424 17.7812C96.8774 18.1861 96.8329 18.5941 96.8091 19.0035V19.3811L98.555 19.3537ZM60.2037 10.3894C60.9942 10.0045 61.8682 9.8251 62.7456 9.86753C64.0303 9.86753 65.3252 10.2898 65.3081 10.7087C65.3081 10.9902 63.0395 16.9984 62.9165 17.0465C62.5736 16.9673 62.2436 16.8402 61.9359 16.6688C61.0536 16.2164 60.0803 15.9721 59.0899 15.9547C57.9556 15.9547 56.6914 16.377 56.1892 16.9126C55.9784 17.1415 55.9774 17.2038 55.9235 20.5517L55.9227 20.5999C55.868 23.9954 55.9842 28.1599 56.1721 29.8319C56.3361 31.2533 56.7119 31.9571 57.4909 32.2833C58.2911 32.4707 59.1064 32.5856 59.927 32.6266C59.9908 32.8625 60.0059 33.109 59.9714 33.351L59.944 34.0789L53.0494 34.0995C49.2569 34.1132 46.1307 34.0995 46.0351 34.0445C45.9394 33.9896 45.9394 33.7733 45.9394 33.3201L45.9668 32.6712L46.3084 32.6026L47.166 32.4343C48.0645 32.2661 48.5804 31.7717 48.8743 30.807C49.1032 30.0208 49.2159 27.511 49.2159 22.4676C49.2228 16.298 49.0929 14.8389 48.4711 14.0149C48.1363 13.5651 47.8937 13.4381 47.0771 13.2836L46.9577 13.2602C46.5935 13.189 46.2389 13.1195 46.1342 13.0948C45.9497 13.057 45.9258 12.9849 45.9258 12.5386C45.9258 12.0923 45.9531 12.0099 46.1342 11.9343C46.4143 11.821 55.646 9.9671 55.9398 9.9671H56.1687L56.1243 11.3404C56.1004 12.0991 56.0594 13.2047 56.0354 13.7986L55.9945 14.8767L56.3361 14.269C57.4055 12.3292 58.6047 11.1241 60.2037 10.3894ZM40.8179 11.4022C43.7015 13.1017 45.4542 16.1573 45.9428 20.3115C46.0754 21.9965 46.0135 23.6912 45.7583 25.3618C44.7914 29.8903 42.0001 33.0523 37.9002 34.2437C37.4004 34.3878 36.8928 34.5024 36.3798 34.587C34.9837 34.7054 33.5802 34.7054 32.1842 34.587C30.0211 34.2942 28.0102 33.3067 26.4512 31.7717C25.1931 30.5176 24.2726 28.9629 23.776 27.2536C22.8391 24.1183 22.8391 20.7757 23.776 17.6404C24.686 14.8411 26.6473 12.5093 29.2425 11.1413C32.7138 9.39032 37.6029 9.50019 40.8179 11.4022ZM35.9288 32.8704C37.6883 32.0567 38.6313 29.6877 38.9388 25.3172C39.359 19.2129 38.3751 14.1282 36.4003 12.3361C35.9664 11.9412 35.4328 11.6741 34.8578 11.5639C34.2829 11.4536 33.6889 11.5046 33.1408 11.7112C31.682 12.3704 30.7561 14.293 30.3153 17.5477C30.001 19.8583 30.0352 24.5962 30.3768 26.7248C30.9235 30.086 32.0065 32.2181 33.5372 32.9047C34.3121 33.1854 35.1622 33.1732 35.9288 32.8704Z" fill="white"/>
</svg>
