<svg width="600" height="600" viewBox="0 0 600 600" fill="none" xmlns="http://www.w3.org/2000/svg">
<path d="M0 263.859C1.4933 118.594 123.677 -1.21731 268.941 0.00933595C392.191 1.04932 495.496 85.7013 524.935 200.006L600 466.668H533.335V600H0V263.859Z" fill="url(#paint0_linear_37_1315)"/>
<path d="M216.667 298.333C281.1 298.333 333.333 246.473 333.333 182.5C333.333 118.527 281.1 66.6667 216.667 66.6667C152.233 66.6667 100 118.527 100 182.5C100 246.473 152.233 298.333 216.667 298.333Z" fill="url(#paint1_linear_37_1315)"/>
<path d="M150 386.667C214.433 386.667 266.667 333.687 266.667 268.333C266.667 202.98 214.433 150 150 150C85.5668 150 33.3333 202.98 33.3333 268.333C33.3333 333.687 85.5668 386.667 150 386.667Z" fill="url(#paint2_linear_37_1315)"/>
<path d="M233.333 200H433.333C451.014 200 467.971 207.024 480.474 219.526C492.976 232.029 500 248.986 500 266.667V266.667C500 284.348 492.976 301.305 480.474 313.807C467.971 326.31 451.014 333.333 433.333 333.333H233.333V200Z" fill="url(#paint3_linear_37_1315)"/>
<path d="M233.333 133.333H333.333C346.466 133.333 359.469 135.92 371.602 140.945C383.734 145.971 394.758 153.337 404.044 162.623C413.33 171.908 420.696 182.932 425.721 195.065C430.747 207.198 433.333 220.201 433.333 233.333V233.333C433.333 246.466 430.747 259.469 425.721 271.602C420.696 283.734 413.33 294.758 404.044 304.044C394.758 313.33 383.734 320.696 371.602 325.721C359.469 330.747 346.466 333.333 333.333 333.333H233.333V133.333Z" fill="url(#paint4_linear_37_1315)"/>
<defs>
<linearGradient id="paint0_linear_37_1315" x1="0" y1="600" x2="600" y2="0" gradientUnits="userSpaceOnUse">
<stop offset="0.14" stop-color="white" stop-opacity="0"/>
<stop offset="0.94" stop-color="white"/>
</linearGradient>
<linearGradient id="paint1_linear_37_1315" x1="100" y1="182.5" x2="333.333" y2="182.5" gradientUnits="userSpaceOnUse">
<stop offset="0.14" stop-color="white" stop-opacity="0"/>
<stop offset="0.94" stop-color="white" stop-opacity="0.9"/>
</linearGradient>
<linearGradient id="paint2_linear_37_1315" x1="33.3333" y1="268.333" x2="266.667" y2="268.333" gradientUnits="userSpaceOnUse">
<stop offset="0.14" stop-color="white" stop-opacity="0"/>
<stop offset="0.94" stop-color="white" stop-opacity="0.9"/>
</linearGradient>
<linearGradient id="paint3_linear_37_1315" x1="233.333" y1="266.667" x2="500" y2="266.667" gradientUnits="userSpaceOnUse">
<stop offset="0.14" stop-color="white" stop-opacity="0"/>
<stop offset="0.94" stop-color="white" stop-opacity="0.9"/>
</linearGradient>
<linearGradient id="paint4_linear_37_1315" x1="233.333" y1="233.333" x2="433.333" y2="233.333" gradientUnits="userSpaceOnUse">
<stop offset="0.14" stop-color="white" stop-opacity="0"/>
<stop offset="0.94" stop-color="white" stop-opacity="0.9"/>
</linearGradient>
</defs>
</svg>
