<svg width="120" height="16" viewBox="0 0 120 16" fill="none" xmlns="http://www.w3.org/2000/svg">
<path fill-rule="evenodd" clip-rule="evenodd" d="M99.528 12.201V10.538H96.7124V3.71631H91.8954V5.37927H94.5414V10.538H91.7258V12.201H99.528ZM94.7023 0.386615C94.4518 0.634072 94.3087 0.970227 94.3039 1.32237L94.3039 1.32192V1.32362L94.3039 1.32237C94.3167 1.67073 94.4628 2.00085 94.7122 2.24433C94.9617 2.48792 95.2953 2.62611 95.6439 2.63024C95.9883 2.62414 96.317 2.48454 96.5606 2.24081C96.8042 1.99708 96.9438 1.66825 96.9499 1.32362C96.9514 1.15079 96.9188 0.979363 96.854 0.819176C96.7891 0.658989 96.6932 0.513177 96.5719 0.390178C96.4505 0.26718 96.306 0.169416 96.1468 0.102454C95.9875 0.035492 95.8166 0.000663681 95.6439 4.30766e-09C95.2914 -2.8243e-05 94.9531 0.138867 94.7023 0.386615ZM68.9131 12.201V10.2495H63.5025V7.16105H67.9632V5.19263H63.5025V2.27391H68.7434V0.322442H61.3145V12.201H68.9131ZM79.2424 12.201V6.97441C79.2424 4.80234 78.0212 3.54661 76.125 3.54661C74.802 3.54661 74.0727 4.08963 73.6147 4.73447H73.479L73.2925 3.71631H71.3046V12.201H73.4756V7.43257C73.4756 6.00715 74.3406 5.37927 75.3244 5.37927C76.3081 5.37927 77.0714 6.00713 77.0714 7.33074V12.201H79.2424ZM89.7583 12.8611C89.7583 14.6768 88.0791 15.7628 85.5519 15.7628C82.6346 15.7628 81.2947 14.4053 81.1251 12.895L82.5328 11.775C82.2281 11.6426 81.9682 11.4247 81.7846 11.1476C81.601 10.8706 81.5015 10.5462 81.4982 10.2138C81.4982 9.41627 82.0579 8.89025 82.7024 8.55086C82.3668 8.31745 82.0937 8.00494 81.9073 7.64092C81.721 7.2769 81.6271 6.87256 81.6339 6.46363C81.6339 4.81761 83.0756 3.54491 85.4502 3.54491C86.146 3.53547 86.8353 3.68035 87.4685 3.96915C88.0673 3.68882 88.5993 3.28384 89.029 2.78129L90.1484 3.95216C89.7124 4.35657 89.2067 4.67856 88.6558 4.90246C89.0255 5.33886 89.2297 5.8916 89.2325 6.46363C89.2325 8.27935 87.5873 9.33143 85.4502 9.33143C84.9287 9.33617 84.4091 9.26764 83.9067 9.1278C83.6014 9.26356 83.4318 9.45021 83.4318 9.70475C83.4318 10.1969 84.0763 10.3496 84.7039 10.3496H86.4509C88.6558 10.3513 89.7583 11.3338 89.7583 12.8611ZM87.706 12.9798C87.706 12.3689 87.1632 12.0465 86.2134 12.0465H84.4868L83.2147 12.9798C83.4352 13.5907 84.1475 14.1338 85.5553 14.1338C86.6917 14.1355 87.7094 13.7621 87.7094 12.9815L87.706 12.9798ZM83.7201 6.44749C83.7206 7.21068 84.382 7.77026 85.4502 7.77026C86.5187 7.77026 87.1463 7.21026 87.1463 6.44664C87.1463 5.68302 86.5018 5.10608 85.4502 5.10608C84.399 5.10608 83.7206 5.66734 83.7201 6.44749ZM109.772 6.97441V12.201H107.601V7.33074C107.601 6.00713 106.838 5.37927 105.854 5.37927C104.871 5.37927 104.006 6.00715 104.006 7.43257V12.201H101.835V3.71631H103.822L104.009 4.73447H104.145C104.603 4.08963 105.332 3.54661 106.655 3.54661C108.551 3.54661 109.772 4.80234 109.772 6.97441ZM120 9.51981H117.931C117.71 10.2495 117.052 10.6398 116.133 10.6398C114.861 10.6398 114.028 9.75737 113.943 8.53558H119.966C119.969 8.49478 119.972 8.45549 119.975 8.41735C119.988 8.2334 120 8.07639 120 7.90772C120 4.87021 118.1 3.54661 116.048 3.54661C113.74 3.54661 111.84 5.24355 111.84 8.04348C111.84 10.6568 113.655 12.3707 116.133 12.3707C118.236 12.3707 119.678 11.2676 120 9.51981ZM117.914 7.0762H113.962C114.028 6.57219 114.277 6.11014 114.662 5.77831C115.047 5.44649 115.54 5.26818 116.048 5.27748C117.117 5.27748 117.897 6.0241 117.914 7.0762Z" fill="white"/>
<path fill-rule="evenodd" clip-rule="evenodd" d="M3.27518 12.201C6.4978 12.201 8.36352 9.91011 8.36352 6.21079C8.36352 2.57936 6.51476 0.322449 3.27518 0.322449H0V12.201H3.27518ZM3.17172 2.3248C5.32748 2.3248 6.07377 3.91994 6.07377 6.21079C6.07377 8.75619 5.07307 10.1986 3.17342 10.1986H2.2253V2.3248H3.17172ZM14.69 10.5889V8.21318C14.69 6.71988 15.572 5.6508 17.5056 5.6508C17.846 5.64749 18.1862 5.67016 18.5232 5.71866V3.54662H17.8618C16.0639 3.54662 15.3854 4.08961 14.8088 5.0908H14.6578L14.4695 3.71631H10.2462V5.3284H12.519V10.5889H10.1614V12.201H17.7939V10.5889H14.69ZM26.3406 9.51981H28.4099C28.0893 11.2676 26.6459 12.3707 24.5427 12.3707C22.0664 12.3707 20.2516 10.6568 20.2516 8.04349C20.2516 5.24355 22.1512 3.54662 24.4579 3.54662C26.5102 3.54662 28.4099 4.87022 28.4099 7.90773C28.4099 8.08936 28.3977 8.25748 28.3831 8.46028L28.3831 8.46035L28.3777 8.53558H22.3548C22.4396 9.75737 23.2707 10.6398 24.5427 10.6398C25.462 10.6398 26.1201 10.2495 26.3406 9.51981ZM22.3717 7.0762H26.3237C26.3067 6.02411 25.5265 5.27748 24.4579 5.27748C23.9501 5.26856 23.4567 5.44698 23.0719 5.77873C22.6871 6.11049 22.4379 6.57234 22.3717 7.0762ZM38.6917 12.201V3.71631H36.5377V4.47993C36.0797 3.97085 35.2316 3.54662 34.1292 3.54662C31.9751 3.54662 30.2112 5.17566 30.2112 7.94166C30.2112 10.6398 31.9242 12.3707 34.1292 12.3707C35.4182 12.3707 36.2154 11.7428 36.6055 11.1998H36.7582L36.9447 12.201H38.6917ZM34.4854 5.37927C35.7235 5.37927 36.5377 6.38048 36.5377 7.94166L36.5343 7.93996C36.5343 9.5198 35.7235 10.538 34.4854 10.538C33.2472 10.538 32.3822 9.50283 32.3822 7.94166C32.3822 6.38048 33.2472 5.37927 34.4854 5.37927ZM49.2382 5.80352V12.201H47.2198V6.19382C47.2198 5.71868 46.9654 5.37929 46.5413 5.37929C46.0834 5.37929 45.7611 5.75264 45.7611 6.34657V12.201H43.7258V6.24304C43.7258 5.71699 43.4544 5.37759 43.0474 5.37759C42.6403 5.37759 42.2841 5.7 42.2841 6.3109V12.1993H40.2657V3.71463H42.0975L42.2841 4.41034H42.4198C42.5693 4.13519 42.7936 3.90794 43.0667 3.75481C43.3398 3.60169 43.6506 3.52895 43.9632 3.54493C44.2901 3.53225 44.613 3.61966 44.8888 3.79554C45.1646 3.97142 45.3802 4.22736 45.5067 4.52912H45.6424C45.8968 4.05398 46.3548 3.54493 47.3894 3.54493C48.424 3.54493 49.2382 4.20671 49.2382 5.80352ZM51.053 9.48588C51.1717 11.2337 52.4099 12.3707 55.0219 12.3707C56.8876 12.3707 58.5668 11.5901 58.5668 9.80828C58.5668 8.31498 57.5661 7.5853 55.7682 7.17804L55.0219 7.00834C53.9534 6.77077 53.3597 6.63503 53.3597 6.0411C53.3597 5.48111 53.9364 5.17565 54.7336 5.17565C55.5986 5.17565 56.1922 5.54897 56.277 6.14289H58.3802C58.2615 4.76838 57.0911 3.54662 54.7336 3.54662C52.8678 3.54662 51.3413 4.44598 51.3413 6.15988C51.3413 7.72105 52.5117 8.23013 54.0721 8.56951L54.9201 8.75619C56.1583 9.0277 56.5823 9.35012 56.5823 9.8592C56.5823 10.504 55.836 10.7416 55.0219 10.7416C54.0382 10.7416 53.2749 10.4531 53.1562 9.48588H51.053Z" fill="#5151F4"/>
</svg>
