<svg width="457" height="60" viewBox="0 0 457 60" fill="none" xmlns="http://www.w3.org/2000/svg">
<path fill-rule="evenodd" clip-rule="evenodd" d="M378.846 46.442V40.112H368.128V14.1458H349.793V20.4758H359.864V40.112H349.147V46.442H378.846ZM360.477 1.47162C359.524 2.41354 358.979 3.69308 358.961 5.03347L358.961 5.03177V5.03824L358.961 5.03347C359.009 6.35948 359.566 7.61608 360.515 8.54288C361.464 9.47009 362.734 9.9961 364.061 10.0118C365.372 9.9886 366.623 9.45723 367.55 8.52948C368.478 7.60173 369.009 6.35007 369.032 5.03824C369.038 4.38038 368.914 3.72787 368.667 3.11813C368.42 2.50839 368.055 1.95337 367.593 1.48518C367.131 1.017 366.582 0.644868 365.975 0.389983C365.369 0.135098 364.719 0.00252625 364.061 1.63968e-08C362.719 -0.000107505 361.432 0.528587 360.477 1.47162ZM262.312 46.442V39.0139H241.717V27.258H258.697V19.7653H241.717V8.65548H261.667V1.22735H233.389V46.442H262.312ZM301.63 46.4421V26.5476C301.63 18.2797 296.982 13.4999 289.764 13.4999C284.728 13.4999 281.952 15.5669 280.209 18.0214H279.692L278.982 14.1458H271.416V46.4421H279.679V28.2915C279.679 22.8658 282.972 20.4758 286.717 20.4758C290.461 20.4758 293.366 22.8657 293.366 27.9039V46.4421H301.63ZM341.658 48.9546C341.658 55.866 335.267 60 325.647 60C314.542 60 309.442 54.8325 308.796 49.0838L314.155 44.8208C312.995 44.3167 312.006 43.4872 311.307 42.4326C310.608 41.378 310.229 40.1434 310.217 38.8782C310.217 35.8423 312.347 33.8401 314.801 32.5482C313.523 31.6597 312.483 30.4702 311.774 29.0846C311.065 27.699 310.707 26.1599 310.733 24.6033C310.733 18.3378 316.221 13.4934 325.26 13.4934C327.908 13.4575 330.532 14.009 332.942 15.1083C335.221 14.0412 337.246 12.4997 338.882 10.5868L343.143 15.0436C341.483 16.583 339.558 17.8086 337.462 18.6608C338.869 20.322 339.646 22.4259 339.657 24.6033C339.657 31.5147 333.394 35.5194 325.26 35.5194C323.275 35.5374 321.297 35.2766 319.385 34.7443C318.222 35.261 317.577 35.9715 317.577 36.9404C317.577 38.8136 320.03 39.3949 322.419 39.3949H329.069C337.462 39.4014 341.658 43.1413 341.658 48.9546ZM333.846 49.4067C333.846 47.0814 331.78 45.8542 328.165 45.8542H321.592L316.75 49.4067C317.59 51.7321 320.301 53.7991 325.66 53.7991C329.985 53.8055 333.859 52.3845 333.859 49.4132L333.846 49.4067ZM318.674 24.5419C318.676 27.4469 321.194 29.5769 325.26 29.5769C329.327 29.5769 331.716 27.4453 331.716 24.5387C331.716 21.632 329.262 19.4359 325.26 19.4359C321.258 19.4359 318.676 21.5723 318.674 24.5419ZM417.84 26.5476V46.4421H409.577V27.9039C409.577 22.8657 406.671 20.4758 402.927 20.4758C399.182 20.4758 395.89 22.8658 395.89 28.2915V46.4421H387.626V14.1458H395.192L395.903 18.0214H396.419C398.162 15.5669 400.938 13.4999 405.974 13.4999C413.192 13.4999 417.84 18.2797 417.84 26.5476ZM456.771 36.2364H448.894C448.055 39.0139 445.55 40.4994 442.051 40.4994C437.209 40.4994 434.039 37.1407 433.716 32.49H456.642C456.653 32.3347 456.664 32.1852 456.675 32.04C456.727 31.3398 456.771 30.7421 456.771 30.1001C456.771 18.5381 449.54 13.4999 441.728 13.4999C432.941 13.4999 425.71 19.9592 425.71 30.6169C425.71 40.5641 432.618 47.088 442.051 47.088C450.057 47.088 455.544 42.8894 456.771 36.2364ZM448.83 26.935H433.787C434.038 25.0165 434.986 23.2578 436.451 21.9947C437.916 20.7316 439.795 20.0529 441.728 20.0883C445.795 20.0883 448.765 22.9303 448.83 26.935Z" fill="white"/>
<path fill-rule="evenodd" clip-rule="evenodd" d="M12.4667 46.4422C24.7334 46.4422 31.8351 37.7222 31.8351 23.6411C31.8351 9.8183 24.7979 1.22754 12.4667 1.22754H0V46.4422H12.4667ZM12.0729 8.84932C20.2787 8.84932 23.1193 14.9211 23.1193 23.6411C23.1193 33.3299 19.3102 38.8203 12.0794 38.8203H8.47043V8.84932H12.0729ZM55.9165 40.306V31.263C55.9165 25.5789 59.2737 21.5095 66.6336 21.5095C67.9296 21.4969 69.2245 21.5832 70.5073 21.7678V13.5001H67.9894C61.1459 13.5001 58.5635 15.567 56.3684 19.3779H55.7939L55.0772 14.146H39.0015V20.2823H47.6526V40.306H38.6787V46.4422H67.7312V40.306H55.9165ZM100.264 36.2366H108.14C106.92 42.8896 101.426 47.0882 93.4201 47.0882C83.9941 47.0882 77.0861 40.5643 77.0861 30.6171C77.0861 19.9593 84.3169 13.5001 93.0973 13.5001C100.909 13.5001 108.14 18.5383 108.14 30.1003C108.14 30.7917 108.094 31.4316 108.038 32.2035L108.038 32.204L108.017 32.4902H85.0918C85.4146 37.1409 88.578 40.4996 93.4201 40.4996C96.9193 40.4996 99.4244 39.0141 100.264 36.2366ZM85.1563 26.9352H100.199C100.134 22.9305 97.1646 20.0885 93.0973 20.0885C91.1641 20.0546 89.2861 20.7337 87.8215 21.9965C86.3569 23.2593 85.4082 25.0173 85.1563 26.9352ZM147.277 46.4422V14.146H139.078V17.0527C137.335 15.1149 134.107 13.5001 129.91 13.5001C121.711 13.5001 114.996 19.7009 114.996 30.2295C114.996 40.4997 121.517 47.0882 129.91 47.0882C134.817 47.0882 137.851 44.6981 139.336 42.6312H139.917L140.627 46.4422H147.277ZM131.266 20.476C135.979 20.476 139.078 24.287 139.078 30.2295L139.065 30.223C139.065 36.2366 135.979 40.1121 131.266 40.1121C126.553 40.1121 123.26 36.172 123.26 30.2295C123.26 24.287 126.553 20.476 131.266 20.476ZM187.421 22.0908V46.4423H179.739V23.5765C179.739 21.7679 178.77 20.476 177.156 20.476C175.413 20.476 174.186 21.8972 174.186 24.1579V46.4423H166.439V23.7638C166.439 21.7615 165.406 20.4695 163.856 20.4695C162.307 20.4695 160.951 21.6968 160.951 24.0221V46.4358H153.268V14.1396H160.241L160.951 16.7878H161.468C162.037 15.7405 162.891 14.8754 163.93 14.2926C164.97 13.7097 166.153 13.4328 167.343 13.4937C168.587 13.4454 169.816 13.7781 170.866 14.4476C171.916 15.1171 172.736 16.0913 173.218 17.2399H173.734C174.703 15.4313 176.446 13.4937 180.384 13.4937C184.322 13.4937 187.421 16.0127 187.421 22.0908ZM194.329 36.1074C194.781 42.7605 199.494 47.0882 209.437 47.0882C216.538 47.0882 222.93 44.1168 222.93 37.3346C222.93 31.6505 219.121 28.873 212.277 27.3228L209.437 26.6769C205.369 25.7726 203.11 25.2559 203.11 22.9952C203.11 20.8636 205.305 19.7009 208.339 19.7009C211.632 19.7009 213.891 21.1219 214.214 23.3826H222.22C221.768 18.1506 217.313 13.5001 208.339 13.5001C201.237 13.5001 195.427 16.9234 195.427 23.4473C195.427 29.3898 199.882 31.3275 205.821 32.6194L209.049 33.3299C213.762 34.3634 215.376 35.5907 215.376 37.5284C215.376 39.983 212.536 40.8872 209.437 40.8872C205.692 40.8872 202.787 39.7892 202.335 36.1074H194.329Z" fill="#11117F"/>
</svg>
