<svg width="360" height="360" viewBox="0 0 360 360" fill="none" xmlns="http://www.w3.org/2000/svg">
<path d="M0 158.315C0.89598 71.1566 74.2064 -0.730387 161.364 0.00560157C235.315 0.629592 297.297 51.4208 314.961 120.004L360 280.001H320.001V360H0V158.315Z" fill="white"/>
<path d="M130 179C168.66 179 200 147.884 200 109.5C200 71.1162 168.66 40 130 40C91.3401 40 60 71.1162 60 109.5C60 147.884 91.3401 179 130 179Z" fill="#5151F4"/>
<path d="M90 232C128.66 232 160 200.212 160 161C160 121.788 128.66 90 90 90C51.3401 90 20 121.788 20 161C20 200.212 51.3401 232 90 232Z" fill="#5151F4"/>
<path d="M140 120H260C270.609 120 280.783 124.214 288.284 131.716C295.786 139.217 300 149.391 300 160V160C300 170.609 295.786 180.783 288.284 188.284C280.783 195.786 270.609 200 260 200H140V120Z" fill="#5151F4"/>
<path d="M140 80H200C207.879 80 215.681 81.5519 222.961 84.5672C230.241 87.5825 236.855 92.0021 242.426 97.5736C247.998 103.145 252.417 109.759 255.433 117.039C258.448 124.319 260 132.121 260 140V140C260 147.879 258.448 155.681 255.433 162.961C252.417 170.241 247.998 176.855 242.426 182.426C236.855 187.998 230.241 192.417 222.961 195.433C215.681 198.448 207.879 200 200 200H140V80Z" fill="#5151F4"/>
</svg>
